<?xml version="1.0" standalone="no"?>
<!DOCTYPE svg PUBLIC "-//W3C//DTD SVG 1.1//EN" "http://www.w3.org/Graphics/SVG/1.1/DTD/svg11.dtd" >
<svg>
<metadata>
Created by FontForge 20090622 at Sat Nov 24 16:57:59 2018
 By ffonts
JoannaVu
</metadata>
<defs>
<font id="magicaltheory" horiz-adv-x="305" >
  <font-face 
    font-family="magicaltheory"
    font-weight="500"
    font-stretch="normal"
    units-per-em="1000"
    panose-1="2 0 6 3 0 0 0 0 0 0"
    ascent="800"
    descent="-200"
    x-height="499"
    cap-height="719"
    bbox="2 -219 737 780"
    underline-thickness="50"
    underline-position="-100"
    unicode-range="U+0020-U+F8FE"
  />
<missing-glyph horiz-adv-x="364" 
d="M66 33h199v600h-199v-600zM33 0v666h265v-666h-265z" />
    <glyph glyph-name=".notdef" horiz-adv-x="364" 
d="M66 33h199v600h-199v-600zM33 0v666h265v-666h-265z" />
    <glyph glyph-name=".null" horiz-adv-x="0" 
 />
    <glyph glyph-name="nonmarkingreturn" horiz-adv-x="333" 
 />
    <glyph glyph-name="space" unicode=" " horiz-adv-x="300" 
 />
    <glyph glyph-name="exclam" unicode="!" horiz-adv-x="272" 
d="M215 717v-5v-3.5v-4v-5.5v-48v-145v-123v-166l-99 78v5v6.5v6.5v48q1 66 1 145v145v48v6.5v6.5v5h98zM225 107v-1v-4v-12q0 -16 -0.5 -36t-0.5 -36v-12v-5l-98 1v5v12v1v1v1v2v1v1v1v1v1v1v1v1v1v1v1v1v1v1v1v1v1v1v1v1v1v1v1v1v1v1v1v1v1v2q1 20 1 36v12v5z" />
    <glyph glyph-name="comma" unicode="," horiz-adv-x="253" 
d="M105 0v4v12v1v1v2v1v1v1v1v1v1v1v1v1v1v1v1v1v1v1v1v1v1v1v1v1v1v1v1v1v1v1v1v1v1v2v36v12q1 4 1 5l98 -1v-1l1 -182l-101 78z" />
    <glyph glyph-name="hyphen" unicode="-" horiz-adv-x="322" 
d="M44 314l122 1h108v-79l-108 -1h-122v79z" />
    <glyph glyph-name="period" unicode="." horiz-adv-x="251" 
d="M204 104q0 -1 -1 -5v-12v-36v-36v-12v-5l-98 1v5v12v1v1v2v1v1v1v1v1v1v1v1v1v1v1v1v1v1v1v1v1v1v1v1v1v1v1v1v1v1v1v1v1v1v2v36v12q1 4 1 5z" />
    <glyph glyph-name="zero" unicode="0" horiz-adv-x="307" 
d="M258 174h1v-75q-1 -43 -28.5 -71t-54.5 -28h-41.5h-30.5q-39 0 -65 30t-27 81l1 283q0 46 26 76t64 30h68q31 -1 58.5 -27.5t27.5 -67.5zM183 108l1 35v245q-1 27 -8 37t-31 10l-21 1q-20 -1 -28 -11.5t-7 -36.5v-281q0 -26 8.5 -34.5t29.5 -8.5h17q20 0 29.5 8.5
t9.5 35.5z" />
    <glyph glyph-name="one" unicode="1" horiz-adv-x="154" 
d="M106 501v-6v-16v-27v-29v-172.5v-171.5q0 -15 0.5 -29.5t0.5 -27.5v-16v-6h-75v6v16q0 13 -0.5 27.5t-0.5 29.5v171.5v171.5v30v27v16v6h75z" />
    <glyph glyph-name="two" unicode="2" horiz-adv-x="336" 
d="M281 66l-11 -67l-145 -1q-37 2 -60.5 29t-25.5 64l1 66q0 21 13 45t37 41l82 63q3 2 10 8t9 7.5t7 6t6 6t4 5t3 6t2 6t2 8v9v11.5v18v4q0 9 -1 13.5t-4 9.5t-10 7t-19 3h-125l14 65h131q36 1 62 -27.5t25 -61.5v-51q0 -34 -10.5 -54.5t-34.5 -38.5l-94 -72q-1 0 -6.5 -4
t-6.5 -5t-5.5 -5t-6 -6l-4.5 -6t-4 -7t-2 -7.5t-1 -9.5v-38q0 -26 8.5 -33.5t33.5 -7.5z" />
    <glyph glyph-name="three" unicode="3" 
d="M7 500h146q45 -1 74.5 -31t29.5 -72v-74q-1 -36 -26 -64q26 -32 26 -76v-80q-1 -39 -30.5 -71.5t-70.5 -32.5h-104h-45v1v2v4v4v24v23v4v4v2v1h39q78 0 98 1q47 1 49 65v26q0 28 -11 48t-35 20h-36h-98v69h41h4h11h15h17h15h25q51 2 52 54v24q0 56 -46 55l-140 1v69z" />
    <glyph glyph-name="four" unicode="4" horiz-adv-x="316" 
d="M269 500v-5v-16v-27.5v-29.5v-172v-172v-29.5v-27.5v-15v-6h-75v6v15v27.5v29.5v151h-16.5h-26.5h-27.5h-21.5h-75v3v3v4v24v13v11v8v1v1v1v16v8v9v12v30v34v64v11v10v8h75v-8v-9.5v-11.5v-64v-64v-12v-17l-36 -16h8h7h17h4h21.5h27.5h26.5h16.5v124v29.5v27.5v16v5h75z
" />
    <glyph glyph-name="five" unicode="5" 
d="M11 500h3h7h24h35.5h40h40h34.5h25h7h2v-69h-2h-7h-25h-34.5h-40.5h-38v-12v-13v-64v-12v-17l-37 -16h9h4h11h10h4h18h17h15h11h4v-1h2h2q45 -1 75 -33.5t30 -79.5v-80q-1 -39 -30.5 -71.5t-70.5 -32.5h-104h-45v1v2v4v4v24v23v4v4v2v1h5v1q106 -1 132 0q47 1 49 65v26
q0 28 -11 48t-35 20h-41h-5h-18l-75 -1v3v1v1v1v1v1v1v1v1v24v24v4v4v2h-1v18v7v9.5v11.5v30v34q0 35 -1 64v11.5v9.5v8h3h2v1z" />
    <glyph glyph-name="six" unicode="6" horiz-adv-x="315" 
d="M64 61h89q24 1 33 13t8 39l-3 150q-1 27 -9.5 35t-28.5 8l-51 -1l1 -225zM24 61l1 306q-2 42 8 71.5t27.5 42.5t32 17.5t30.5 5.5l94 -1l11 -65h-81q-17 -1 -27 -3.5t-14 -8.5t-5 -11t-1 -14l1 -11l-37 -20l38 1l72 -1q42 1 67 -28.5t26 -81.5v-148q2 -111 -85 -112
h-48.5h-73.5l-35 1l-1 59v1z" />
    <glyph glyph-name="seven" unicode="7" horiz-adv-x="295" 
d="M247 499v-3v-7v-12v-13v-78.5v-77.5v-14.5v-11.5v-7v-3v-22v-47.5v-54.5v-102v-17.5v-16.5v-9v-4h-75v4v9v16v18v102v33v25v20q-32 1 -33 1h-24h-20h-15h-6v69h6h15h20.5h23.5q2 0 33 -1v2v11v77v47h-34h-40.5h-34.5h-25h-7h-2v69h2h7h25h34.5h40t40 -0.5t35.5 -0.5h24h7
h3v-1z" />
    <glyph glyph-name="eight" unicode="8" horiz-adv-x="307" 
d="M134 206l-14 -11q-1 -1 -6.5 -5t-7 -5t-5.5 -5l-5.5 -5.5t-4.5 -5.5t-4.5 -7.5t-2.5 -8t-1 -9.5l1 -37q0 -20 4 -28.5t15 -11.5h37q26 1 34.5 8.5t8.5 33.5l1 37q0 13 -7.5 23.5t-11.5 13.5l-19 14zM134 300l8 6q3 2 10.5 8t9 7.5t7 6t6 6t4 5t3.5 6t1.5 6.5t1.5 8t0.5 9
t0.5 11v18v4q-1 10 -1.5 14t-3.5 9.5t-10.5 7.5t-18.5 2h-58q-8 -3 -11.5 -9t-4 -9.5t-1.5 -15.5v-18q0 -28 5.5 -37.5t30.5 -28.5q6 -5 10 -8zM93 1q-28 4 -54.5 26.5t-28.5 63.5l1 66q0 21 13 45t36 41q6 4 11 9l-15 11q-24 17 -33 37t-9 54l-2 60q2 36 22.5 61t56.5 25h2
q48 1 87 0q35 -1 57.5 -28.5t21.5 -61.5v-51q-1 -33 -11.5 -54t-33.5 -39l-17 -13q5 -4 10 -7q25 -18 38 -42t14 -45v-65q-1 -38 -24 -63q-30 -32 -75 -31h-60q-4 0 -7 1z" />
    <glyph glyph-name="nine" unicode="9" horiz-adv-x="350" 
d="M225 440h-50q-24 -1 -33 -13t-9 -38l2 -151q0 -26 9 -34.5t29 -8.5l50 1zM225 500h78l-2 -373q1 -39 -9.5 -66.5t-27.5 -40t-32.5 -18t-30.5 -5.5q-94 -1 -94 1l-11 66l81 -1q17 1 27.5 3.5t14.5 8.5t5 10.5t0 14.5l-1 30l-72 1q-42 -1 -66.5 29t-25.5 82l1 148
q-1 111 86 111q18 0 79 -1z" />
    <glyph glyph-name="question" unicode="?" horiz-adv-x="553" 
d="M200 164l-1 119q1 27 16.5 56.5t44.5 50.5l101 77q4 3 13 10.5l11.5 9.5l8.5 7t7 7t5 6.5t4.5 7.5t2.5 7.5t2 10t0.5 11.5t0.5 14l-1 22v5q0 12 -1 17t-5 11.5t-12.5 9t-23.5 2.5l-154 1l-105 77q222 3 284 4q44 0 76.5 -35t30.5 -76v-63q0 -42 -13 -67.5t-42 -47.5
l-116 -88q-1 -1 -8 -6t-8.5 -6t-7 -6t-7.5 -7t-5.5 -7t-5 -9t-2.5 -9.5t-1 -11.5l1 -47zM295 107v-5v-12q-1 -16 -1 -36v-36v-12v-5l-98 1v5v12v36t1 36v12v5z" />
    <glyph glyph-name="A" unicode="A" horiz-adv-x="486" 
d="M302 213l-46 414l-47 -2l-44 -386l-47 -26h9h14h89h72zM127 720h217l95 -721l-113 1l-13 118h-83h-77l-15 -118h-112z" />
    <glyph glyph-name="B" unicode="B" horiz-adv-x="439" 
d="M174 330h-7h-2h-2h-23v-22v-32v-104v-18v-17v-9v-3v-1h-1l-54 -24q116 0 144 1q68 1 70 93v37q0 41 -16 70t-50 28q-29 0 -59 1zM80 719h162q64 0 107 -43.5t42 -104.5v-105q-1 -52 -37 -93q38 -45 38 -108l-1 -115q-1 -56 -43.5 -102.5t-101.5 -47.5l-149 1h-64v1v3v5.5
v5.5q-1 16 -1 34.5v33.5v6v5v3v2v24v3v10v16.5v18.5v48.5v56v56v48.5v18v17v9v1v3v23v2v9v14.5v15.5v92t-1 92v15.5v14.5v9v3h46h3zM99 429h6h16h4h14h28h19h6h32q38 1 56 19.5t19 57.5l1 34q-1 36 -17 58t-50 22l-94 1v-36v-49t1 -43v-15v-15v-8v-3h-1l-51 -23h6h5z" />
    <glyph glyph-name="C" unicode="C" horiz-adv-x="449" 
d="M291 145l-2 53l112 54v-108q-1 -62 -40.5 -102.5t-79.5 -40.5q-38 0 -60.5 -0.5t-42.5 -0.5q-56 1 -94 44.5t-39 116.5v409q0 65 38.5 108.5t93.5 43.5l95 -1q38 5 82 -35.5t44 -99.5l2 -126l-107 1q0 61 -1 99q-1 40 -11 54.5t-45 14.5l-30 1q-29 -1 -40 -16.5
t-10 -52.5l-1 -406q1 -37 13.5 -49t41.5 -13h43q23 1 30.5 12.5t7.5 39.5z" />
    <glyph glyph-name="D" unicode="D" horiz-adv-x="422" 
d="M220 100q26 1 37 14.5t11 50.5v392q1 38 -10 53t-38 16h-83v-204q0 -112 1 -205v-35v-32v-19v-7h-1l-54 -24h32h31h41h33zM143 1h-2.5h-2.5h-108v12v3v33.5v34.5v6v5v3v1v25v6v19v32.5v35.5v95v109q0 42 -1 205v35v32v19v7h103h5q80 1 109 0q60 -1 94 -43t34 -109l1 -407
q-2 -72 -38 -115.5t-90 -44.5q-20 0 -42 0.5t-58 0.5h-4z" />
    <glyph glyph-name="E" unicode="E" horiz-adv-x="399" 
d="M36 720h4h10h36h34h24h49h108h18.5h17.5h10h3v-99h-3h-10h-17.5h-18.5h-108h-1h-1h-1h-2h-1h-1h-1h-2h-1h-1h-1h-1h-1h-1h-2h-1h-1h-1h-1h-1h-1h-1h-1h-1h-1h-1h-1h-1h-2h-1h-1h-1h-1h-1h-2h-1h-1h-1h-1h-1h-1h-1h-2q0 -12 1 -35v-49v-43v-16v-15v-8v-3l-52 -23h6h6h8h21
h3h8h20h33h64h11h10h8v-100h-8h-10.5h-10.5h-64q-31 0 -53 1v-17v-37v-105v-18v-17v-9v-3v-1h-1l-54 -24h104h108h18.5h17.5h10h3v-99h-3h-10h-36h-50h-58h-49h-108v12v3v34.5v33.5v6v5v4v1v24v4v9v17v18v49v56v56v49v18v17v9v2v2v24v2v8v15v16v43t-1 49v35v19v38v16v15v8v3
z" />
    <glyph glyph-name="F" unicode="F" horiz-adv-x="399" 
d="M37 721h4h10h36h34h24h50h107h19h17h10h4l-1 -100h-3h-10h-17h-19h-108q-37 1 -48 1v-9.5v-12.5v-13v-93v-15.5v-14.5v-9v-3l-52 -23h12h8h21h3h1h3.5h3.5h21h32h64h11.5h9.5h8v-100h-8q-5 0 -10 0.5t-11 0.5h-64h-53v-41v-74v-148v-24.5v-23.5v-14v-5h-108v5v14v22.5
v25.5v148v78.5v68.5v25v24v13v3v2v24v2v9v14v16v43t-1 49v36v18v39v16v14v9v3z" />
    <glyph glyph-name="G" unicode="G" horiz-adv-x="442" 
d="M285 724l109 55l1 -785q1 -45 -9.5 -80.5t-26 -55t-36.5 -31.5t-38.5 -16t-34.5 -4l-136 1l-16 95l118 -1q24 1 39 4.5t21 12.5t7 16t1 20l-2 44l-105 1q-48 0 -89.5 45t-43.5 115l1 411q0 65 39 109.5t94 44.5q28 0 107 -1zM283 631h-74q-34 -1 -44 -15.5t-10 -54.5
v-406q0 -38 12.5 -49.5t42.5 -12.5l73 1v537z" />
    <glyph glyph-name="H" unicode="H" horiz-adv-x="438" 
d="M390 720v-8v-23v-39v-42v-247.5v-247.5q0 -21 0.5 -42t0.5 -39v-23v-8h-108v8v23v39v42q0 97 -1 217h-24h-37h-70v-41.5v-73.5v-147v-25.5v-23.5v-13v-5h-108v4v14v23.5v25.5v147v78.5v68.5v25v24v13v3v2v24v2v8v15v16v92t-1 92v16v14v9v3h108v-3v-8v-15v-16
q0 -42 0.5 -92t0.5 -92v-16v-14v-12l-52 -23h12h2h7h25h3h3h30.5h39.5h61v179v42v39v23v8h108z" />
    <glyph glyph-name="I" unicode="I" horiz-adv-x="219" 
d="M171 719v-8v-22v-40v-42v-247v-247v-43v-39v-23v-8h-107v8v23v39v43q-1 112 -1 247v247v42v39v23v8h108z" />
    <glyph glyph-name="J" unicode="J" horiz-adv-x="402" 
d="M250 720l104 60l1 -742q1 -44 -9 -77t-24.5 -51.5t-34.5 -30t-36.5 -15.5t-32.5 -4l-129 1l-15 90h111q36 -1 50.5 13t14.5 37v719z" />
    <glyph glyph-name="K" unicode="K" horiz-adv-x="550" 
d="M503 721l-49 -64l-15 -18l-51 -65l-105 -132l212 -441h-132l-152 350l-55 -70v-168v-42v-39v-23v-8h-108v8v23v39v42v248v247v42v40v22v9h108v-8v-23v-39.5v-42.5v-172l156 197l70 88h121z" />
    <glyph glyph-name="L" unicode="L" horiz-adv-x="403" 
d="M149 721v-7v-19v-32.5v-34.5v-205.5v-205.5v-34.5v-32.5v-19v-7l-55 -24h33h31h41h107h19h17h10h3v-100h-3h-10h-36h-50h-58h-49h-107v1v12v3q0 15 -0.5 33.5t-0.5 34.5v6v5v3v1v25v7v18v32.5v35.5v95.5v109.5v206v34.5v32.5v19v7h108z" />
    <glyph glyph-name="M" unicode="M" horiz-adv-x="639" 
d="M135 720l3 -7q3 -9 8 -22v-1l1 -2v-1l1 -1v-1l1 -1v-1v-1l1 -1v-1l1 -1v-1v-1l1 -1v-1v-1l1 -1v-1v-1l1 -1v-1l1 -1v-1v-1l1 -1v-1v-1l1 -1v-1l1 -1v-1v-1h1v-1v-1l1 -1v-1v-1l1 -1v-1v-1l1 -1v-1v-1h1v-1v-1v-1h1v-1v-1l1 -1v-1v-1l1 -1v-1l1 -1v-1v-1l1 -1v-1v-1l1 -1
v-1v-1l1 -1v-1l1 -1v-1l1 -1v-1v-1l1 -1v-1v-1l1 -1v-1v-1l1 -2l89 -236l44 -118l45 119l89 236l29 78l1 1l1 2v1l1 2v1l1 1v2v1h1v1v1l1 1v1v1l1 1v1l1 1v1v1l3 8h1h108v-8v-23v-39v-43v-247v-248v-42v-39v-23v-8h-108v8v23v39v42v248v88l-40 -105l-47.5 -127l-41.5 -110
q-1 -2 -4 -11l-36 -96h-12l-3 8q-3 9 -8 22l-1 1v1l-1 1v1v2l-1 1v1l-1 1v1v1l-1 1v1v1l-1 1v1l-1 1v1v1l-1 1v1l-1 1v1v1l-1 1v1v1l-1 1v1v1h-1v1v1l-1 1v1v1l-1 1v1v1h-1v1v1h-1v1v1v1h-1v1v1l-1 1v1v1l-1 1v1v1l-1 1v1l-1 1v1v1l-1 1v1v1l-1 1v1l-1 1v1v1l-1 1v1v1l-1 1
v1v1l-1 1v1h-1v1v1l-1 1v2l-89 236l-38 102v-85v-247v-43v-39v-23v-8h-108v8v23v39v43v247v248v42v39v23v8h108z" />
    <glyph glyph-name="N" unicode="N" horiz-adv-x="492" 
d="M81 720l82 -1l198 -468q-20 201 -26 469h110l-4 -719l-75 -1l-198 466q13 -215 13 -466l-98 1z" />
    <glyph glyph-name="O" unicode="O" horiz-adv-x="424" 
d="M375 251h1v-109q-1 -61 -40.5 -101.5t-79.5 -40.5q-37 0 -59.5 -0.5t-43.5 -0.5q-56 1 -93.5 44.5t-39.5 115.5l1 409q0 66 37.5 109t92.5 43h99q44 -1 83.5 -39t39.5 -97zM267 155l1 51q0 318 -1 353q-1 39 -11 53.5t-45 14.5l-30 1q-29 -1 -40 -16.5t-10 -52.5l-1 -405
q1 -38 13.5 -49.5t41.5 -12.5h26q28 1 41.5 13t14.5 50z" />
    <glyph glyph-name="P" unicode="P" horiz-adv-x="455" 
d="M115 432h6h15h6h13q15 -1 28 -1h1h1h1h1h2h1h1h1h1h1h1h2h1h1h1h1h1h1h1h1h2q23 0 33 1q38 1 56 19.5t19 57.5l1 34q-1 36 -17 58.5t-51 21.5q-46 0 -93 1v-16v-21v-91v-15.5v-14.5v-9v-2v-1l-52 -22h12zM126 720l133 1q65 -1 107 -43t42 -103l-1 -106q-1 -53 -39 -94.5
t-97 -42.5h-10h-11h-6h-7h-8h-47h-2h-1h-24v-41v-75v-148v-25.5v-23.5v-13v-5h-108v5v13v23.5v25.5v148v79v69v25v24v14v2v2v24v2v9v14v16v91v92v15.5v14.5v8v3h78h1z" />
    <glyph glyph-name="Q" unicode="Q" horiz-adv-x="506" 
d="M381 251q1 0 3 1l1 -108q-2 -68 -51 -112l125 -251h-133l-96 220h-25.5h-17.5h-26q-56 0 -93.5 43.5t-39.5 116.5l1 409q0 65 38 109t93 44l94 -1q43 0 85.5 -39t42.5 -98l1 -333q-1 0 -2 -1zM275 157l1 50q1 319 0 353q-1 40 -11.5 54t-44.5 15h-31q-28 0 -39 -15.5
t-11 -53.5v-404q0 -37 12 -49.5t39 -13.5l-35 82l97 23l23 -47v6z" />
    <glyph glyph-name="R" unicode="R" horiz-adv-x="545" 
d="M112 721h162q65 0 108 -43.5t43 -105.5l-1 -106q0 -42 -25.5 -78.5t-67.5 -51.5l167 -338l-131 -1l-144 332h-8.5h-15.5h-2h-2h-24v-42v-73v-148q0 -13 0.5 -25.5t0.5 -23.5v-14v-5h-109v5v14v23.5v24.5v148v79v69v25.5v23.5v14v2v3v23v2v9v15v15q0 43 -0.5 93t-0.5 92
v16v15v8v3l46 1h4zM131 429h6h15h6h13h28q15 -1 25 -1q22 1 33 1q37 1 55.5 19.5t19.5 58.5l1 34q-1 36 -17 58t-51 22l-94 1v-36v-92v-16v-15v-11l-52 -23h12z" />
    <glyph glyph-name="S" unicode="S" horiz-adv-x="465" 
d="M59 97l187 -1q37 0 49 10.5t13 48.5l1 54q0 7 -1.5 13.5t-3.5 11t-6.5 10.5l-6.5 8.5t-8.5 8t-8.5 7t-10 7t-9 6.5l-140 103q-35 26 -50.5 55.5t-16.5 78.5v73q-2 48 37 88.5t92 39.5h195l21 -94h-186q-17 -1 -27.5 -3.5t-15.5 -10t-6 -14t-1 -19.5q-1 -4 -1 -6v-26
q0 -39 8 -53t43 -41l14 -11l122 -90q35 -24 54 -58.5t19 -65.5l1 -94q-1 -53 -36.5 -92t-90.5 -41l-215 1z" />
    <glyph glyph-name="T" unicode="T" horiz-adv-x="442" 
d="M39 721h4h12h11.5h12h16.5h27.5h21h18.5h108h69h20.5h19.5h11h4v-99h-4h-11h-19.5h-20.5h-41h-28v-13v-248t1 -248v-42v-39v-23v-8h-108v8v23v39v42q0 113 -0.5 248t-0.5 248v13h-1h-1h-1h-1h-1h-1h-1h-1h-1h-1h-1h-1h-1h-1h-1h-1h-1h-1h-1h-1h-1h-1h-1h-1h-1h-1h-1h-1
h-1h-1h-1h-1h-1h-1h-1h-1h-1h-1h-1h-1h-1h-1h-1h-1h-1h-1h-1h-1h-1h-1h-1h-1h-1h-1h-1h-1h-1h-1h-1h-1h-1h-1h-1h-1h-1h-1h-1h-21h-19h-12h-4v99z" />
    <glyph glyph-name="U" unicode="U" horiz-adv-x="450" 
d="M293 155v564h108l1 -577q-1 -61 -40.5 -102t-79.5 -41h-59.5h-42.5q-56 0 -93.5 44t-39.5 116l5 560l105 1v-566q1 -38 13.5 -50t41.5 -12h26q27 0 41 12t14 51z" />
    <glyph glyph-name="V" unicode="V" horiz-adv-x="484" 
d="M334 0l-217 -1l-12 94l-83 627h113l67 -606l-47 -21h50l47 1l72 626h113z" />
    <glyph glyph-name="W" unicode="W" horiz-adv-x="785" 
d="M333 -1l-217 -1l-12 94l-82 627h113l66 -606l-47 -21h50l47 1l73 626h112l66 -607l-44 -20h47l47 1l73 626h112l-103 -720h-217l-12 94l-28 215z" />
    <glyph glyph-name="X" unicode="X" horiz-adv-x="583" 
d="M252 721l39 -104l44 -120l45 118v1l1 2l1 2v1l1 2v1l1 2l1 2v1l1 2v1l1 1v2l1 1v1l1 2v1l1 1v2l1 1v1l1 1v1v1l1 1v1l1 1v1v1l1 1v1v1l1 1v1v1h1v1v1l1 1v1v1l1 1v1v1l1 1v1l1 1v1v1h1v1v1v1l1 1v1l1 1v1v1l1 1v1v1l1 1v1l1 1v1v1l1 1v1l1 1v2l11 27h103l-15 -40l-1 -1
v-1v-1l-1 -1v-1l-1 -1v-1v-1l-1 -1v-1v-1l-1 -1v-1l-1 -1v-1v-1l-1 -1v-1v-1l-1 -1v-2l-30 -78l-83 -220q22 -58 57 -142.5l62.5 -149.5t29.5 -68h-117l-4 11l-9 21l-29 78l-42 113l-43 -116l-30 -78v-2l-1 -1l-1 -2v-1l-1 -2v-1v-1l-1 -1v-1l-1 -1v-1l-1 -1v-1v-1v-1l-1 -1
v-1l-1 -1v-1l-3 -8l-105 1q55 140 55 141l83 219l-84 223l-1 2v2l-1 1v2l-1 2l-1 1v2l-1 1v2l-1 1l-1 2v1l-1 2v1l-1 1v2l-1 1v1v1l-1 1v2l-1 1v1l-1 1v1v1l-1 1v1v1l-1 1v1v1l-1 1v1l-1 1v1v1l-1 1v1l-1 1v1v1l-1 1v1v1l-1 1v1l-1 1v1v1l-1 1v1l-1 1v1v1v1l-1 1v1l-1 1v1
l-1 1v1v1l-1 1v1v1l-1 1v1l-22 59z" />
    <glyph glyph-name="Y" unicode="Y" horiz-adv-x="503" 
d="M186 721q1 -4 4 -12t6 -15l29 -78l45 -121l43 119l1 1l1 2v2l1 1l1 2v2l1 1v2l1 1v2l1 1l1 1v2l1 1v2l1 1v1l1 1v2v1l1 1v1l1 1v1l1 1v1v1l1 1v1v1l1 1v1v1l1 1v1l1 1v1v1l1 1v1l1 1v1v1v1h1v1v1l1 1v1l1 1v1v1l1 1v1v1l1 1v1v1l1 1v1v1l1 1l1 1v1v1l1 1v1v1l1 1l10 30
h102l-14 -42v-1l-1 -1v-1v-1l-1 -1v-1l-1 -1v-1v-1l-1 -1v-1v-1l-1 -1v-1l-1 -1v-1v-1h-1v-1v-1l-1 -1v-2l-29 -77l-83 -220q0 -16 1 -42q0 -59 0.5 -129.5t0.5 -128.5q1 -25 1 -43v-12v-4l-105 -1v4v12q0 18 -1 43q0 59 -0.5 129.5t-0.5 128.5q-1 25 -1 43v4l-82 218
l-29 78l-22 61h103z" />
    <glyph glyph-name="Z" unicode="Z" horiz-adv-x="481" 
d="M432 719v-92l-251 -513l-54 -22h306l-1 -93l-366 2v91h1l266 534l-268 2v92z" />
    <glyph glyph-name="a" unicode="a" horiz-adv-x="336" 
d="M194 148l-32 287h-33l-31 -268l-32 -18h16q13 0 28.5 -0.5t33.5 -0.5h30.5h19.5zM72 500h150l66 -500h-78l-9 82h-25h-32t-32 0.5t-22 0.5l-10 -83h-78z" />
    <glyph glyph-name="b" unicode="b" 
d="M110 228h-9h-10h-4.5h-4.5v-19v-18v-73v-13v-11v-6v-3h-1l-37 -16q80 -1 100 0q47 1 49 65v26q0 28 -11 48t-35 20h-37zM40 499l113 1q45 -1 74.5 -31t29.5 -72v-74q-1 -36 -26 -64q26 -32 26 -76v-80q-1 -39 -30.5 -71.5t-70.5 -32.5h-104h-45v1v2v4v4v24v23v5v3v2v1v18
v1v7v11v13v34v39v39v34v24v7v1v1v17v7v9.5v11.5v30v34q0 35 -1 64v11.5v9.5v8h32h2zM54 297h4h11h1h2h4.5h5.5h19h15h25q51 2 52 54v24q0 56 -46 55q-33 1 -65 1v-25v-34v-30v-12v-17l-36 -16h3.5h4.5z" />
    <glyph glyph-name="c" unicode="c" horiz-adv-x="304" 
d="M180 102l-1 36l77 37l1 -74q-1 -43 -28.5 -71.5t-55.5 -28.5h-41h-30q-39 0 -65 30.5t-27 80.5l1 284q0 45 26.5 74.5t64.5 29.5h66q26 3 56.5 -25t30.5 -69l1 -87l-74 1q0 43 -1 69q0 27 -7.5 37t-30.5 11h-21q-20 -1 -28 -11.5t-7 -36.5v-280q0 -27 8.5 -35t28.5 -8
l30 -1q16 1 21 9t5 28z" />
    <glyph glyph-name="d" unicode="d" horiz-adv-x="297" 
d="M142 69q17 1 25 10.5t8 35.5v273q0 26 -7.5 36.5t-26.5 11.5h-57v-46v-42v-55v-142v-26.5v-20.5v-13v-4v-1h-1l-37 -16q14 0 32.5 -0.5t39.5 -0.5h24zM88 0h-2h-2h-75v1v2v8v11v13v23v5v3v2v1v18v4v13v20.5v26.5v66v76v55v42v46v24v23v13v5h71h3h77q41 -1 65 -30.5
t24 -76.5v-283q-1 -50 -26 -80.5t-63 -30.5h-28.5h-40.5h-3z" />
    <glyph glyph-name="e" unicode="e" horiz-adv-x="277" 
d="M11 500h3h7h24h24h17h34h40.5h34.5h25h7h2v-69h-2h-7h-25h-34.5h-40.5h-34v-24q0 -19 0.5 -35t0.5 -30v-11.5v-9.5v-8l-37 -16h4.5h4.5h5h15h2h6h13.5h22.5h24h21h15h5v-69h-6h-14h-21h-24h-22.5h-13.5v-37v-73v-13v-11v-6v-2v-1h-1l-37 -16h32.5t39.5 -0.5t40 -0.5h35
h25h6h3v-69h-3h-7h-24h-35h-40q-19 0 -34 1v-1h-75v1v2v8v11v13v23v5v3v2v1v18v2v6v11v13v34.5v39v38.5v34v24v7v1v1v17v7v9.5v11.5q-1 14 -1 30v34v25v13v27v10.5v10.5v8z" />
    <glyph glyph-name="f" unicode="f" horiz-adv-x="278" 
d="M13 500h2h7h25h24h17h34h39.5h35.5h24h7h3v-69h-3h-7h-24h-35.5h-39.5h-34v-24v-65v-11.5v-9.5v-8l-36 -16h8h6h14h2h1h2.5h2.5h14.5h22.5h23.5h20.5h15h6l-1 -69h-5h-15h-20.5h-23.5h-22.5h-14.5v-28.5v-50.5v-54.5v-48.5v-18.5v-14.5v-10v-3h-75v3v10v16v17v103v54.5
v47.5v34v9v2v1v17v7v9.5v11.5v30v34v25v13v27v10.5v10.5v8z" />
    <glyph glyph-name="g" unicode="g" horiz-adv-x="295" 
d="M171 500l76 37l1 -541q0 -40 -10 -67.5t-27.5 -40t-32.5 -17.5t-31 -5h-20.5h-19.5h-17.5h-15t-11 0.5t-7.5 0.5h-2l-12 65h82q17 0 27 2.5t14 8.5t5 11t1 14l-1 30q-43 1 -73 1q-33 0 -62 31.5t-30 79.5l1 284q0 45 27 75.5t65 30.5h73zM171 435h-52q-24 -1 -30.5 -11
t-6.5 -37v-280q0 -27 8.5 -35t29.5 -8h50z" />
    <glyph glyph-name="h" unicode="h" horiz-adv-x="316" 
d="M269 500v-5v-16v-27.5v-29.5v-172v-172v-29.5v-27.5v-15v-6h-75v6v15v27.5v29.5v151h-16.5h-26.5h-27.5h-21.5v-29v-51v-54.5v-48.5v-18.5v-14.5v-10v-3h-75v3v10v16v17v103v54.5v47.5v34v9v2v2v16v8v9v12v30v34v64v11v10v8h75v-8v-9.5v-11.5v-64v-64v-12v-17l-36 -16h8
h7h17h2h2h21.5h27.5h26.5h16.5v124v29.5v27.5v16v5h75z" />
    <glyph glyph-name="i" unicode="i" horiz-adv-x="154" 
d="M106 501v-6v-16v-27v-29v-172.5v-171.5q0 -15 0.5 -29.5t0.5 -27.5v-16v-6h-75v6v16q0 13 -0.5 27.5t-0.5 29.5v171.5v171.5v30v27v16v6h75z" />
    <glyph glyph-name="j" unicode="j" horiz-adv-x="292" 
d="M168 501l76 44l1 -542q1 -39 -9.5 -66.5t-27.5 -40t-32.5 -17.5t-30.5 -5q-11 -1 -21.5 -1t-19.5 0.5t-17.5 0.5h-14.5h-11h-7l-3 1l-11 65h81q26 0 37 10t10 26v525z" />
    <glyph glyph-name="k" unicode="k" horiz-adv-x="402" 
d="M355 500l-34 -44l-11 -13l-35 -45l-73 -92l147 -306h-92l-105 243l-38 -49v-116v-29.5v-27.5v-16v-5l-75 -1v6v16v27.5v29.5q0 78 -0.5 171.5t-0.5 172.5v29v27v16v6h75v-6v-16v-27v-29q0 -74 1 -120l108 137l49 61h84z" />
    <glyph glyph-name="l" unicode="l" horiz-adv-x="312" 
d="M121 500v-4v-14v-20v-27v-142v-142v-27v-20v-18l-38 -17h32.5h39.5h40h35h25h7h2v-69h-2h-7h-25h-35h-40h-34h-75v1v2v8v11v12v24v4v4v2v1v18v3v13v21v26v66.5v76.5v142v25v22v13v5h75z" />
    <glyph glyph-name="m" unicode="m" horiz-adv-x="471" 
d="M107 500l2 -5l6 -15v-1v-2l1 -1v-1l1 -1v-1v-1l1 -1v-1v-1l1 -1v-1l1 -1v-1v-1h1v-1v-1v-1h1v-1v-1l1 -1v-1v-1l1 -1v-1v-1h1v-1v-1l1 -1v-1v-1h1v-1v-1v-1h1v-1v-1l1 -1v-1l1 -1v-1v-1v-1l1 -1v-1l1 -1v-1l1 -1v-1v-1l1 -1v-1v-1l1 -1l61 -164l31 -83l31 83l62 164
l20 54q4 9 6 15l2 6h1h74v-6v-16v-27.5v-29.5q0 -78 0.5 -171.5t0.5 -171.5v-30v-27v-16v-6h-75v6v16v27v29v172v35v27l-28 -74l-33.5 -87l-28.5 -77v-1l-1 -1v-1v-1l-1 -1v-1l-1 -1l-25 -67h-8l-2 5l-6 15v2l-1 1v1l-1 1v1v1l-1 1v1l-1 1v1v1v1h-1v1v1l-1 1v1l-1 1v1v1
l-1 1v1v1l-1 1v1v1h-1v1v1l-1 1v1v1l-1 1v1v1l-1 1v1l-1 1v1v1l-1 1v1l-1 1v1v1v1l-1 1v1h-1v1v1l-1 1v1v1l-1 1v1l-62 164l-26 71v-59v-172v-29.5v-27.5v-15v-6h-75v6v15v27.5v29.5v172v172v29.5v27.5v16v5h75z" />
    <glyph glyph-name="n" unicode="n" horiz-adv-x="333" 
d="M33 500h57l138 -326q-14 140 -18 326h76l-3 -500h-52l-138 324q10 -149 10 -324h-69z" />
    <glyph glyph-name="o" unicode="o" horiz-adv-x="307" 
d="M258 174h1v-75q-1 -43 -28.5 -71t-54.5 -28h-41.5h-30.5q-39 0 -65 30t-27 81l1 283q0 46 26 76t64 30h68q31 -1 58.5 -27.5t27.5 -67.5zM183 108l1 35v245q-1 27 -8 37t-31 10l-21 1q-20 -1 -28 -11.5t-7 -36.5v-281q0 -26 8.5 -34.5t29.5 -8.5h17q20 0 29.5 8.5
t9.5 35.5z" />
    <glyph glyph-name="p" unicode="p" horiz-adv-x="324" 
d="M73 299h4h10h5h9h19h15h25q51 2 52 54v24q-1 56 -47 55q-32 1 -65 1v-25q1 -35 1 -64v-12v-17l-37 -16h9zM81 500h92q45 0 74 -29.5t29 -71.5v-74q-1 -36 -27.5 -65t-67.5 -30h-7h-7h-4h-11h-15h-17h-10h-5h-4v-28v-52v-55v-48v-19.5v-14.5v-9v-4h-75v4v9v16.5v17.5v103
v54.5v48.5v33v10v2v1v17v7v9v12v29.5t-1 33.5v64v11v10v8h55h1z" />
    <glyph glyph-name="q" unicode="q" horiz-adv-x="363" 
d="M264 174v-75q-1 -47 -35 -77l87 -174h-92l-66 152h-18.5h-12h-17.5q-39 0 -65 30.5t-27 80.5v283q0 46 26.5 76t64.5 30h65q30 0 59 -27t29 -68zM189 108v35q1 221 0 245q-1 27 -8 37t-31 10l-21 1q-20 -1 -27.5 -11.5t-6.5 -36.5l-1 -281q1 -25 9 -33.5t27 -9.5l-25 57
l68 16l16 -33v4z" />
    <glyph glyph-name="r" unicode="r" horiz-adv-x="390" 
d="M76 500h112q45 0 75 -30t29 -73v-73q0 -29 -18 -54.5t-46 -35.5l115 -234h-90l-100 229h-17h-10h-4.5h-4.5v-29v-51v-54.5v-47.5v-19.5v-14.5v-9v-4h-75v3v10v16v18v102v54.5v47.5v34v9v2v2v16v8v8.5v12.5v29v35v64v10.5v10.5v8h31h3zM89 298h4h11h4h9h19h16h24
q51 1 52 54l1 23q-1 57 -47 56h-65v-24v-64v-12v-17l-36 -16h8z" />
    <glyph glyph-name="s" unicode="s" horiz-adv-x="336" 
d="M39 68l130 -1q26 0 34.5 7.5t8.5 33.5l1 38q0 12 -7.5 23t-11.5 13.5t-19 13.5l-97 72q-25 18 -35.5 38.5t-11.5 54.5v51q-1 33 26 61.5t64 28.5l136 -1l15 -65h-130q-13 0 -20.5 -2t-10.5 -9t-3.5 -10t-0.5 -16l-1 -18q0 -27 6 -37t30 -29q6 -5 10 -7l85 -63
q24 -17 37.5 -41t13.5 -45l1 -66q-2 -37 -26.5 -64t-62.5 -28h-150z" />
    <glyph glyph-name="t" unicode="t" horiz-adv-x="308" 
d="M14 501h2h8h28h47h75q34 -1 48 -1h28h8h2v-69h-2h-8h-28q-14 0 -48 1v-5v-5v-172v-172v-29.5v-27.5v-16v-6h-75v6v16v27.5v29.5v172v172v5v5h-47h-28h-8h-2v69z" />
    <glyph glyph-name="u" unicode="u" horiz-adv-x="323" 
d="M200 108v392h75v-401q-1 -43 -28 -71t-55 -28h-41.5h-29.5q-39 0 -65 30t-27 81l3 389h73v-393q0 -26 9 -34.5t29 -8.5h18q19 0 28.5 8.5t10.5 35.5z" />
    <glyph glyph-name="v" unicode="v" horiz-adv-x="352" 
d="M233 -1h-151l-8 65l-58 435h79l46 -420l-33 -15h35l33 1l50 434h78z" />
    <glyph glyph-name="w" unicode="w" horiz-adv-x="550" 
d="M223 -1h-151l-9 65l-56 436l78 -1l46 -420l-33 -15h35l33 1l50 435l78 -1l46 -421l-30 -14h32l33 1l50 434h78l-71 -500h-151l-9 66l-19 149z" />
    <glyph glyph-name="x" unicode="x" horiz-adv-x="339" 
d="M282 500l-10 -29l-5 -15l-1 -1v-1l-1 -1v-2l-1 -1v-1v-1l-1 -1v-1l-1 -1v-1v-1l-1 -1v-1v-1l-1 -1v-1l-1 -1v-1v-1l-1 -1v-1v-1h-1v-1v-1l-1 -1v-1v-1l-1 -1v-1v-1l-1 -1v-1l-1 -1v-1v-1l-1 -1v-1v-1l-1 -1v-1l-1 -1v-1v-1l-1 -1v-1v-1l-1 -1v-1l-1 -1v-1v-1l-1 -1
l-57 -153q15 -40 39 -98.5l43.5 -103.5t20.5 -47h-81l-3 7q-2 6 -6 15l-20 54l-29 78l-30 -80l-21 -54v-2l-1 -1l-1 -2v-1v-1l-1 -1v-1l-1 -1v-1v-1l-1 -1l-1 -2l-2 -6l-73 1l39 98l57 151l-58 155l-20 54l-15 42h72q14 -41 26 -72l31 -84l31 82l20 54l7 20h71z" />
    <glyph glyph-name="y" unicode="y" horiz-adv-x="316" 
d="M81 500q1 -2 3 -7.5l4 -10.5l20 -54l32 -85l30 83l20 54l8 20h71l-10 -29l-6 -15l-20 -54l-58 -153v-8.5v-8.5v-12q1 -41 1 -90t1 -90v-29v-4.5v-4.5v-3h-73v3v2v2.5v3.5v30q-1 41 -1 90t-1 90v29v3l-57 152l-20 54l-16 42h72z" />
    <glyph glyph-name="z" unicode="z" horiz-adv-x="319" 
d="M271 499v-63l-175 -357l-38 -16h214l-1 -64l-255 1v63h1l185 372l-186 1l-1 64z" />
    <glyph glyph-name="uniF8FE" unicode="&#xf8fe;" horiz-adv-x="300" 
 />
    </font>
</defs>
</svg>
